<?xml version="1.0" encoding="UTF-8" standalone="no"?>
<!-- Created with Inkscape (http://www.inkscape.org/) -->

<svg
   xmlns:dc="http://purl.org/dc/elements/1.1/"
   xmlns:cc="http://creativecommons.org/ns#"
   xmlns:rdf="http://www.w3.org/1999/02/22-rdf-syntax-ns#"
   xmlns:svg="http://www.w3.org/2000/svg"
   xmlns="http://www.w3.org/2000/svg"
   xmlns:sodipodi="http://sodipodi.sourceforge.net/DTD/sodipodi-0.dtd"
   xmlns:inkscape="http://www.inkscape.org/namespaces/inkscape"
   id="svg2"
   version="1.1"
   inkscape:version="0.91 r"
   width="250"
   height="250"
   sodipodi:docname="hearthstone_icon_round.svg">
  <metadata
     id="metadata8">
    <rdf:RDF>
      <cc:Work
         rdf:about="">
        <dc:format>image/svg+xml</dc:format>
        <dc:type
           rdf:resource="http://purl.org/dc/dcmitype/StillImage" />
        <dc:title></dc:title>
      </cc:Work>
    </rdf:RDF>
  </metadata>
  <defs
     id="defs6" />
  <sodipodi:namedview
     pagecolor="#ffffff"
     bordercolor="#666666"
     borderopacity="1"
     objecttolerance="10"
     gridtolerance="10"
     guidetolerance="10"
     inkscape:pageopacity="0"
     inkscape:pageshadow="2"
     inkscape:window-width="1489"
     inkscape:window-height="933"
     id="namedview4"
     showgrid="false"
     inkscape:snap-bbox="true"
     inkscape:bbox-nodes="true"
     inkscape:snap-page="true"
     inkscape:zoom="1.3350176"
     inkscape:cx="-84.895277"
     inkscape:cy="106.41602"
     inkscape:window-x="425"
     inkscape:window-y="93"
     inkscape:window-maximized="0"
     inkscape:current-layer="svg2" />
  <path
     inkscape:connector-curvature="0"
     d="m 174.2123,131.48906 c 0.26486,-2.11888 0.4635,-4.23775 0.4635,-6.48906 0,-2.25131 -0.19864,-4.37018 -0.4635,-6.48906 l 13.97134,-10.92546 c 1.25808,-0.99322 1.58916,-2.78102 0.79458,-4.23775 L 175.73524,80.437371 c -0.79458,-1.45673 -2.58238,-1.98644 -4.03911,-1.45673 l -16.48751,6.62149 c -3.44317,-2.64859 -7.15121,-4.83368 -11.19032,-6.48906 l -2.51616,-17.54694 c -0.19865,-1.58916 -1.58916,-2.78103 -3.24453,-2.78103 l -26.48597,0 c -1.65537,0 -3.04589,1.19187 -3.24453,2.78103 l -2.51617,17.54694 c -4.0391,1.65538 -7.747137,3.90668 -11.190312,6.48906 l -16.48751,-6.62149 c -1.522943,-0.59593 -3.24453,0 -4.039109,1.45673 l -13.24298,22.910359 c -0.860794,1.45673 -0.463504,3.24453 0.794579,4.23775 l 13.971344,10.92546 c -0.26486,2.11888 -0.463505,4.30397 -0.463505,6.48906 0,2.18509 0.198645,4.37018 0.463505,6.48906 l -13.971344,10.92546 c -1.258083,0.99322 -1.589158,2.78102 -0.794579,4.23775 l 13.24298,22.91036 c 0.794579,1.45673 2.582381,1.98645 4.039109,1.45673 l 16.48751,-6.62149 c 3.443175,2.64859 7.151212,4.83368 11.190312,6.48906 l 2.51617,17.54694 c 0.19864,1.58916 1.58916,2.78103 3.24453,2.78103 l 26.48597,0 c 1.65537,0 3.04588,-1.19187 3.24453,-2.78103 l 2.51616,-17.54694 c 4.03911,-1.65538 7.74715,-3.90668 11.19032,-6.48906 l 16.48751,6.62149 c 1.52294,0.59593 3.24453,0 4.03911,-1.45673 l 13.24298,-22.91036 c 0.79458,-1.45673 0.4635,-3.24453 -0.79458,-4.23775 L 174.2123,131.48906 Z m -49.19768,16.68616 c -12.77948,0 -23.17521,-10.39574 -23.17521,-23.17522 0,-12.77948 10.39573,-23.17521 23.17521,-23.17521 12.77948,0 23.17522,10.39573 23.17522,23.17521 0,12.77948 -10.39574,23.17522 -23.17522,23.17522 z"
     id="path4188"
     style="fill:#ffffff;fill-opacity:1" />
</svg>
